<svg xmlns="http://www.w3.org/2000/svg" width="100" height="100" viewBox="0 0 100 100">
  <defs>
    <linearGradient id="rockB" x1="0" y1="0" x2="1" y2="1">
      <stop offset="0%" stop-color="#ebe8df"/>
      <stop offset="100%" stop-color="#6f7a81"/>
    </linearGradient>
  </defs>
  <path d="M45 3 68 10 90 18 97 40 94 60 85 78 65 95 48 98 30 90 18 75 10 55 12 35 20 18 35 6Z" fill="url(#rockB)" stroke="#3e474c" stroke-width="4" stroke-linejoin="round"/>
  <path d="M49 8 67 14 83 22 89 40 86 56 76 73 61 87 46 91 31 84 21 69 15 53 18 37 26 24 38 14Z" fill="none" stroke="#d2d8db" stroke-width="3" stroke-linejoin="round" opacity=".75"/>
  <path d="M18 38 39 28 45 47 24 58Z" fill="#7b878e" opacity=".75"/>
  <path d="M55 16 83 21 81 48 60 42Z" fill="#96a1a7" opacity=".7"/>
  <path d="M36 63 61 57 73 81 50 89Z" fill="#5f6970" opacity=".8"/>
  <path d="M31 22 49 44 40 69 58 79" fill="none" stroke="#4d575c" stroke-width="3" stroke-linecap="round"/>
  <circle cx="25" cy="30" r="7" fill="#8a959b" stroke="#596267" stroke-width="2"/>
  <circle cx="55" cy="20" r="8" fill="#99a5aa" stroke="#667176" stroke-width="2"/>
  <circle cx="75" cy="55" r="9" fill="#6e797f" stroke="#4d565b" stroke-width="2"/>
  <circle cx="50" cy="75" r="6" fill="#879198" stroke="#5d666b" stroke-width="2"/>
  <circle cx="30" cy="60" r="5" fill="#667178" stroke="#4a5358" stroke-width="2"/>
</svg>
