<svg xmlns="http://www.w3.org/2000/svg" width="100" height="100" viewBox="0 0 100 100">
  <defs>
    <linearGradient id="rockD" x1="0" y1="0" x2="1" y2="1">
      <stop offset="0%" stop-color="#f2eee7"/>
      <stop offset="100%" stop-color="#5f646b"/>
    </linearGradient>
  </defs>
  <path d="M48 0 70 15 92 23 97 42 90 63 75 87 55 97 35 95 18 80 8 60 5 40 15 20 30 5Z" fill="url(#rockD)" stroke="#383d43" stroke-width="4" stroke-linejoin="round"/>
  <path d="M49 7 66 19 84 27 88 43 82 60 69 78 53 87 36 86 22 73 14 58 11 41 19 25 32 14Z" fill="none" stroke="#d0d7de" stroke-width="3" stroke-linejoin="round" opacity=".72"/>
  <path d="M17 33 35 26 40 47 20 55Z" fill="#70767d" opacity=".72"/>
  <path d="M54 17 83 24 79 49 59 44Z" fill="#9199a1" opacity=".68"/>
  <path d="M31 64 56 57 72 82 47 90Z" fill="#4d5258" opacity=".82"/>
  <path d="M30 20 49 36 42 57 60 71 49 84" fill="none" stroke="#4a5056" stroke-width="3" stroke-linecap="round"/>
  <circle cx="20" cy="40" r="8" fill="#7d848b" stroke="#52585e" stroke-width="2"/>
  <circle cx="60" cy="25" r="6" fill="#9ca4ab" stroke="#697076" stroke-width="2"/>
  <circle cx="80" cy="70" r="7" fill="#62686f" stroke="#454a50" stroke-width="2"/>
  <circle cx="45" cy="80" r="6" fill="#848b92" stroke="#5b6167" stroke-width="2"/>
  <circle cx="35" cy="50" r="5" fill="#6c7379" stroke="#4a5056" stroke-width="2"/>
</svg>
