<svg xmlns="http://www.w3.org/2000/svg" width="100" height="100" viewBox="0 0 100 100">
  <defs>
    <linearGradient id="rockA" x1="0" y1="0" x2="1" y2="1">
      <stop offset="0%" stop-color="#f3eee8"/>
      <stop offset="100%" stop-color="#7e756f"/>
    </linearGradient>
  </defs>
  <path d="M50 5 72 12 88 20 98 38 92 55 98 75 80 92 60 98 40 95 22 88 12 80 5 65 8 48 3 30 10 15 25 5 42 2Z" fill="url(#rockA)" stroke="#4b443f" stroke-width="4" stroke-linejoin="round"/>
  <path d="M49 10 69 15 83 24 90 39 86 54 90 69 73 84 56 89 37 86 23 77 15 63 18 48 14 34 20 22 31 14Z" fill="none" stroke="#d4cbc2" stroke-width="3" stroke-linejoin="round" opacity=".7"/>
  <path d="M23 25 41 32 33 52 18 48Z" fill="#8d8179" opacity=".7"/>
  <path d="M58 19 82 27 78 47 61 43Z" fill="#9b8f87" opacity=".65"/>
  <path d="M34 61 58 58 69 80 42 84Z" fill="#665d57" opacity=".75"/>
  <path d="M47 23 42 42 55 54 48 74" fill="none" stroke="#554d47" stroke-width="3" stroke-linecap="round"/>
  <circle cx="30" cy="35" r="9" fill="#93877f" stroke="#615953" stroke-width="2"/>
  <circle cx="66" cy="28" r="6" fill="#887c75" stroke="#5d5650" stroke-width="2"/>
  <circle cx="70" cy="60" r="11" fill="#7a6f68" stroke="#564f49" stroke-width="2"/>
  <circle cx="39" cy="71" r="7" fill="#978b84" stroke="#655d57" stroke-width="2"/>
  <circle cx="55" cy="46" r="5" fill="#6f6660" stroke="#504a45" stroke-width="2"/>
</svg>
