<svg xmlns="http://www.w3.org/2000/svg" width="96" height="96" viewBox="0 0 100 100">
  <defs>
    <linearGradient id="hull" x1="0" y1="0" x2="1" y2="1">
      <stop offset="0%" stop-color="#f7fbff"/>
      <stop offset="100%" stop-color="#7f96b4"/>
    </linearGradient>
    <linearGradient id="wing" x1="0" y1="0" x2="1" y2="1">
      <stop offset="0%" stop-color="#d9e5f4"/>
      <stop offset="100%" stop-color="#52647d"/>
    </linearGradient>
    <linearGradient id="cockpit" x1="0" y1="0" x2="0" y2="1">
      <stop offset="0%" stop-color="#8df6ff"/>
      <stop offset="100%" stop-color="#1d87b8"/>
    </linearGradient>
  </defs>
  <path d="M50 6 64 28 75 52 66 88 50 76 34 88 25 52 36 28Z" fill="url(#hull)" stroke="#eff7ff" stroke-width="3.5" stroke-linejoin="round"/>
  <path d="M23 48 8 68l23-5 10-9-5-12Z" fill="url(#wing)" stroke="#dce9f8" stroke-width="3" stroke-linejoin="round"/>
  <path d="M77 48 92 68 69 63 59 54l5-12Z" fill="url(#wing)" stroke="#dce9f8" stroke-width="3" stroke-linejoin="round"/>
  <path d="M50 16 59 33 50 55 41 33Z" fill="url(#cockpit)" stroke="#d9fbff" stroke-width="3" stroke-linejoin="round"/>
  <path d="M38 59h24l6 13-18-4-18 4z" fill="#26364a" stroke="#b8cae0" stroke-width="2.5" stroke-linejoin="round"/>
  <path d="M33 31h9M58 31h9M43 70h14" stroke="#f8fcff" stroke-width="3" stroke-linecap="round"/>
  <path d="M44 84 39 95h11l-3-7h6l3 7h11l-5-11Z" fill="#7ad7ff" opacity=".65"/>
</svg>
